<svg xmlns="http://www.w3.org/2000/svg" version="1.1" xmlns:xlink="http://www.w3.org/1999/xlink" xmlns:svgjs="http://svgjs.dev/svgjs" width="1500" height="1500" viewBox="0 0 1500 1500"><rect width="1500" height="1500" fill="#000000"></rect><g transform="matrix(0.6666666666666666,0,0,0.6666666666666666,248.8395102040816,242.36774193548388)"><svg viewBox="0 0 245 248" data-background-color="#ffffff" preserveAspectRatio="xMidYMid meet" height="1518" width="1500" xmlns="http://www.w3.org/2000/svg" xmlns:xlink="http://www.w3.org/1999/xlink"><g id="tight-bounds" transform="matrix(1,0,0,1,0.2843200000000081,0.4000000000000057)"><svg viewBox="0 0 244.43135999999998 247.2" height="247.2" width="244.43135999999998"><g><svg></svg></g><g><svg viewBox="0 0 244.43135999999998 247.2" height="247.2" width="244.43135999999998"><g transform="matrix(1,0,0,1,0,85.289286192329)"><svg viewBox="0 0 244.43135999999998 76.621427615342" height="76.621427615342" width="244.43135999999998"><g><svg viewBox="0 0 245.65351679999998 77.00453475341871" height="76.621427615342" width="244.43135999999998"><g><rect width="245.65351679999998" height="2.202770413228983" x="0" y="39.52327734679174" fill="#ffffff" opacity="1" stroke-width="0" stroke="transparent" fill-opacity="1" class="rect-yte-0" data-fill-palette-color="primary" rx="1%" id="yte-0" data-palette-color="#556970"></rect></g><g><rect width="245.65351679999998" height="2.202770413228983" x="0" y="44.60925510717908" fill="#ffffff" opacity="1" stroke-width="0" stroke="transparent" fill-opacity="1" class="rect-yte-1" data-fill-palette-color="primary" rx="1%" id="yte-1" data-palette-color="#556970"></rect></g><g transform="matrix(1,0,0,1,0.6110783999999825,52.57844021472477)"><svg viewBox="0 0 244.43136 24.42609453869394" height="24.42609453869394" width="244.43136"><g id="textblocktransform"><svg viewBox="0 0 244.43136 24.42609453869394" height="24.42609453869394" width="244.43136" id="textblock"><g><svg viewBox="0 0 244.43136 24.42609453869394" height="24.42609453869394" width="244.43136"><g transform="matrix(1,0,0,1,0,0)"><svg width="244.43136" viewBox="2.1499999999999995 -40.8 430.27000000000004 43" height="24.42609453869394" data-palette-color="#556970"><path d="M2.6-39.95L2.6-39.95Q5.15-39.95 9.95-40.15 14.75-40.35 16.3-40.35L16.3-40.35 17.65-40.35Q24.2-40.35 27.4-37.68 30.6-35 30.6-30.65L30.6-30.65Q30.6-24.45 22.5-22.05L22.5-22.05 22.5-21.9Q27.2-21.2 29.93-18.23 32.65-15.25 32.65-11.1L32.65-11.1Q32.65-5.55 28.88-2.45 25.1 0.65 17.8 0.65L17.8 0.65Q15.8 0.65 11.33 0.33 6.85 0 4.2 0L4.2 0Q3.9 0 3.25 0.03 2.6 0.05 2.3 0.05L2.3 0.05Q2-0.85 2.3-1.75L2.3-1.75 6.45-2.3Q6.65-4.2 6.65-8.15L6.65-8.15 6.65-37.6 2.6-38.1Q2.4-38.85 2.6-39.95ZM16-20.3L16-20.3 12-20.3 12-2.2Q14.55-1.75 16.05-1.65L16.05-1.65Q22.1-1.65 24.4-3.93 26.7-6.2 26.7-11.05L26.7-11.05Q26.7-14.95 23.88-17.63 21.05-20.3 16-20.3ZM16.35-38.25L16.35-38.25Q13.85-38.25 12.2-37.9L12.2-37.9Q12-36 12-31.65L12-31.65 12-22.8 15.9-22.8Q20.55-22.8 22.68-24.7 24.8-26.6 24.8-30.35L24.8-30.35Q24.8-34.15 22.48-36.2 20.15-38.25 16.35-38.25ZM45.75-26.7L45.75-26.7 45.65-21.55Q46.9-23.85 49.12-25.78 51.35-27.7 53.35-27.7L53.35-27.7Q54.9-27.7 56.1-27.35L56.1-27.35Q56.5-26.7 56.5-25.65L56.5-25.65Q56.5-24 55.8-22.35L55.8-22.35Q54-22.85 52.35-22.85L52.35-22.85Q48.25-22.85 45.6-18.85L45.6-18.85 45.5-10.1 45.5-2.55 51.05-1.8Q51.25-1 51.05 0.2L51.05 0.2Q47.9 0.05 43.85 0.05L43.85 0.05Q40.8 0.05 36.6 0.15L36.6 0.15Q36.3-0.8 36.6-1.8L36.6-1.8 40.55-2.35Q40.75-5.1 40.75-8.7L40.75-8.7 40.75-22.4Q40.75-23.4 40.6-24.25L40.6-24.25 36.65-24.75Q36.45-25.5 36.65-26.65L36.65-26.65Q40.1-26.9 45.25-27.7L45.25-27.7Q45.7-27.2 45.75-26.7ZM58.8-13.3L58.8-13.3Q58.8-16.3 59.67-18.93 60.55-21.55 62.2-23.5 63.85-25.45 66.17-26.58 68.5-27.7 71.4-27.7L71.4-27.7Q74.25-27.7 76.59-26.58 78.95-25.45 80.62-23.5 82.3-21.55 83.2-18.93 84.09-16.3 84.09-13.3L84.09-13.3Q84.09-10.2 83.17-7.6 82.25-5 80.57-3.08 78.9-1.15 76.55-0.08 74.2 1 71.4 1L71.4 1Q68.45 1 66.12-0.05 63.8-1.1 62.17-3 60.55-4.9 59.67-7.53 58.8-10.15 58.8-13.3ZM66.09-22.5L66.09-22.5Q63.95-19.45 63.95-13.3L63.95-13.3Q63.95-10.25 64.52-7.95 65.09-5.65 66.09-4.13 67.09-2.6 68.45-1.85 69.8-1.1 71.4-1.1L71.4-1.1Q72.95-1.1 74.34-1.85 75.75-2.6 76.75-4.13 77.75-5.65 78.34-7.95 78.95-10.25 78.95-13.3L78.95-13.3Q78.95-16.35 78.34-18.68 77.75-21 76.72-22.53 75.7-24.05 74.32-24.83 72.95-25.6 71.4-25.6L71.4-25.6Q68.3-25.6 66.09-22.5ZM123.94-24.3L113.79 2.2 112.74 2.2 106.14-16.15 99.29 2.2 98.24 2.2 88.64-24.25 85.49-24.85Q85.29-25.65 85.49-26.85L85.49-26.85Q88.24-26.65 91.44-26.65L91.44-26.65Q94.29-26.65 97.49-26.8L97.49-26.8Q97.79-25.8 97.49-24.85L97.49-24.85 93.64-24.25 97.64-12.9Q99.39-7.9 99.94-5.65L99.94-5.65 100.04-5.65Q101.24-9.95 102.39-12.65L102.39-12.65 104.94-19.5 103.24-24.25 100.09-24.85Q99.89-25.65 100.09-26.85L100.09-26.85Q102.84-26.65 106.04-26.65L106.04-26.65Q108.89-26.65 112.09-26.8L112.09-26.8Q112.39-25.8 112.09-24.85L112.09-24.85 108.24-24.25 112.09-12.9Q113.84-7.9 114.39-5.65L114.39-5.65 114.49-5.65Q115.69-9.95 116.84-12.65L116.84-12.65 121.19-24.45 117.29-24.85Q117.09-25.65 117.29-26.85L117.29-26.85Q120.04-26.65 122.44-26.65L122.44-26.65Q124.49-26.65 127.69-26.8L127.69-26.8Q127.99-25.8 127.69-24.85L127.69-24.85 123.94-24.3ZM149.89-8.7L149.89-17.85Q149.89-21.7 148.87-23.25 147.84-24.8 145.44-24.8L145.44-24.8Q141.74-24.8 137.99-19.25L137.99-19.25 137.99-2.55 142.04-1.8Q142.24-1 142.04 0.2L142.04 0.2Q138.89 0.05 135.59 0.05L135.59 0.05Q133.29 0.05 129.09 0.15L129.09 0.15Q128.79-0.8 129.09-1.8L129.09-1.8 133.04-2.35Q133.24-5.1 133.24-8.7L133.24-8.7 133.24-22.4Q133.24-23.4 133.09-24.25L133.09-24.25 129.14-24.75Q128.94-25.5 129.14-26.65L129.14-26.65Q132.59-26.9 137.74-27.7L137.74-27.7Q138.19-27.2 138.24-26.7L138.24-26.7Q137.99-25.4 137.99-22.25L137.99-22.25Q141.94-27.7 146.89-27.7L146.89-27.7Q154.64-27.7 154.64-20.35L154.64-20.35 154.64-2.55 158.69-1.8Q158.89-1 158.69 0.2L158.69 0.2Q155.54 0.05 152.24 0.05L152.24 0.05Q149.94 0.05 145.74 0.15L145.74 0.15Q145.44-0.8 145.74-1.8L145.74-1.8 149.69-2.35Q149.89-5.1 149.89-8.7L149.89-8.7ZM206.54-7.4L206.54-7.4Q207.39-6.85 207.84-5.5L207.84-5.5Q200.89 1 193.74 1L193.74 1Q188.84 1 185.19-0.78 181.54-2.55 179.14-5.48 176.74-8.4 175.56-12.13 174.39-15.85 174.39-19.75L174.39-19.75Q174.39-23.7 175.74-27.48 177.09-31.25 179.69-34.23 182.29-37.2 186.11-39 189.94-40.8 194.84-40.8L194.84-40.8Q201.29-40.8 206.84-37.8L206.84-37.8 206.84-28.2Q205.94-28.05 205.24-28.05L205.24-28.05Q204.49-28.05 203.99-28.2L203.99-28.2 202.39-36.55Q199.34-38.55 194.24-38.55L194.24-38.55Q191.09-38.55 188.56-37.13 186.04-35.7 184.26-33.27 182.49-30.85 181.54-27.58 180.59-24.3 180.59-20.6L180.59-20.6Q180.59-16.65 181.51-13.3 182.44-9.95 184.14-7.5 185.84-5.05 188.26-3.68 190.69-2.3 193.69-2.3L193.69-2.3Q197.29-2.3 200.64-3.7 203.99-5.1 206.54-7.4ZM211.58-13.3L211.58-13.3Q211.58-16.3 212.46-18.93 213.33-21.55 214.98-23.5 216.63-25.45 218.96-26.58 221.28-27.7 224.18-27.7L224.18-27.7Q227.03-27.7 229.38-26.58 231.73-25.45 233.41-23.5 235.08-21.55 235.98-18.93 236.88-16.3 236.88-13.3L236.88-13.3Q236.88-10.2 235.96-7.6 235.03-5 233.36-3.08 231.68-1.15 229.33-0.08 226.98 1 224.18 1L224.18 1Q221.23 1 218.91-0.05 216.58-1.1 214.96-3 213.33-4.9 212.46-7.53 211.58-10.15 211.58-13.3ZM218.88-22.5L218.88-22.5Q216.73-19.45 216.73-13.3L216.73-13.3Q216.73-10.25 217.31-7.95 217.88-5.65 218.88-4.13 219.88-2.6 221.23-1.85 222.58-1.1 224.18-1.1L224.18-1.1Q225.73-1.1 227.13-1.85 228.53-2.6 229.53-4.13 230.53-5.65 231.13-7.95 231.73-10.25 231.73-13.3L231.73-13.3Q231.73-16.35 231.13-18.68 230.53-21 229.51-22.53 228.48-24.05 227.11-24.83 225.73-25.6 224.18-25.6L224.18-25.6Q221.08-25.6 218.88-22.5ZM277.63-8.7L277.63-17.85Q277.63-24.8 273.18-24.8L273.18-24.8Q269.38-24.8 265.98-19.55L265.98-19.55 265.98-2.55 270.03-1.8Q270.23-1 270.03 0.2L270.03 0.2Q266.88 0.05 263.63 0.05L263.63 0.05Q261.33 0.05 257.13 0.15L257.13 0.15Q256.83-0.8 257.13-1.8L257.13-1.8 261.08-2.35Q261.28-5.1 261.28-8.7L261.28-8.7 261.28-17.85Q261.28-24.8 256.83-24.8L256.83-24.8Q254.58-24.8 252.88-23.43 251.18-22.05 249.38-19.15L249.38-19.15 249.38-2.55 253.43-1.8Q253.63-1 253.43 0.2L253.43 0.2Q250.28 0.05 247.03 0.05L247.03 0.05Q244.73 0.05 240.53 0.15L240.53 0.15Q240.23-0.8 240.53-1.8L240.53-1.8 244.48-2.35Q244.68-5.1 244.68-8.7L244.68-8.7 244.68-22.4Q244.68-23.4 244.53-24.25L244.53-24.25 240.58-24.75Q240.38-25.5 240.58-26.65L240.58-26.65Q243.93-26.9 249.13-27.7L249.13-27.7Q249.58-27.2 249.63-26.7L249.63-26.7Q249.38-25.4 249.38-22.25L249.38-22.25Q253.33-27.7 258.28-27.7L258.28-27.7Q260.88-27.7 263.03-26.38 265.18-25.05 265.78-22.3L265.78-22.3Q269.78-27.7 274.63-27.7L274.63-27.7Q277.68-27.7 280.01-25.9 282.33-24.1 282.33-20.35L282.33-20.35 282.33-2.55 286.38-1.8Q286.58-1 286.38 0.2L286.38 0.2Q283.23 0.05 279.98 0.05L279.98 0.05Q277.68 0.05 273.48 0.15L273.48 0.15Q273.18-0.8 273.48-1.8L273.48-1.8 277.43-2.35Q277.63-5.1 277.63-8.7L277.63-8.7ZM325.68-8.7L325.68-17.85Q325.68-24.8 321.23-24.8L321.23-24.8Q317.43-24.8 314.03-19.55L314.03-19.55 314.03-2.55 318.08-1.8Q318.28-1 318.08 0.2L318.08 0.2Q314.93 0.05 311.68 0.05L311.68 0.05Q309.38 0.05 305.18 0.15L305.18 0.15Q304.88-0.8 305.18-1.8L305.18-1.8 309.13-2.35Q309.33-5.1 309.33-8.7L309.33-8.7 309.33-17.85Q309.33-24.8 304.88-24.8L304.88-24.8Q302.63-24.8 300.93-23.43 299.23-22.05 297.43-19.15L297.43-19.15 297.43-2.55 301.48-1.8Q301.68-1 301.48 0.2L301.48 0.2Q298.33 0.05 295.08 0.05L295.08 0.05Q292.78 0.05 288.58 0.15L288.58 0.15Q288.28-0.8 288.58-1.8L288.58-1.8 292.53-2.35Q292.73-5.1 292.73-8.7L292.73-8.7 292.73-22.4Q292.73-23.4 292.58-24.25L292.58-24.25 288.63-24.75Q288.43-25.5 288.63-26.65L288.63-26.65Q291.98-26.9 297.18-27.7L297.18-27.7Q297.63-27.2 297.68-26.7L297.68-26.7Q297.43-25.4 297.43-22.25L297.43-22.25Q301.38-27.7 306.33-27.7L306.33-27.7Q308.93-27.7 311.08-26.38 313.23-25.05 313.83-22.3L313.83-22.3Q317.83-27.7 322.68-27.7L322.68-27.7Q325.73-27.7 328.05-25.9 330.38-24.1 330.38-20.35L330.38-20.35 330.38-2.55 334.43-1.8Q334.63-1 334.43 0.2L334.43 0.2Q331.28 0.05 328.03 0.05L328.03 0.05Q325.73 0.05 321.53 0.15L321.53 0.15Q321.23-0.8 321.53-1.8L321.53-1.8 325.48-2.35Q325.68-5.1 325.68-8.7L325.68-8.7ZM358.18-14.1L358.18-14.1 342.48-14.1Q342.03-1.35 350.13-1.35L350.13-1.35Q353.58-1.35 357.18-4.4L357.18-4.4Q357.93-3.95 358.33-2.85L358.33-2.85Q354.88 1 349.58 1L349.58 1Q337.38 1 337.38-13.35L337.38-13.35Q337.38-20.15 340.98-23.93 344.58-27.7 349.38-27.7L349.38-27.7Q354.63-27.7 356.93-24.05 359.23-20.4 359.23-14.55L359.23-14.55Q358.73-14.15 358.18-14.1ZM349.28-25.7L349.28-25.7Q346.68-25.7 344.85-23 343.03-20.3 342.63-16.1L342.63-16.1 348.83-16.1Q352.53-16.1 354.13-16.55L354.13-16.55Q354.13-20.65 352.88-23.18 351.63-25.7 349.28-25.7ZM372.02-26.7L372.02-26.7 371.92-21.55Q373.17-23.85 375.4-25.78 377.62-27.7 379.62-27.7L379.62-27.7Q381.17-27.7 382.37-27.35L382.37-27.35Q382.77-26.7 382.77-25.65L382.77-25.65Q382.77-24 382.07-22.35L382.07-22.35Q380.27-22.85 378.62-22.85L378.62-22.85Q374.52-22.85 371.87-18.85L371.87-18.85 371.77-10.1 371.77-2.55 377.32-1.8Q377.52-1 377.32 0.2L377.32 0.2Q374.17 0.05 370.12 0.05L370.12 0.05Q367.07 0.05 362.87 0.15L362.87 0.15Q362.57-0.8 362.87-1.8L362.87-1.8 366.82-2.35Q367.02-5.1 367.02-8.7L367.02-8.7 367.02-22.4Q367.02-23.4 366.87-24.25L366.87-24.25 362.92-24.75Q362.72-25.5 362.92-26.65L362.92-26.65Q366.37-26.9 371.52-27.7L371.52-27.7Q371.97-27.2 372.02-26.7ZM406.82-20.3L406.82-20.3Q405.77-19.2 401.87-19.25L401.87-19.25Q401.07-25.55 397.32-25.55L397.32-25.55Q394.37-25.55 392.32-22.15 390.27-18.75 390.27-13.2L390.27-13.2Q390.27-7.5 392.07-4.42 393.87-1.35 397.47-1.35L397.47-1.35Q401.27-1.35 404.92-4.45L404.92-4.45Q405.67-4 406.07-2.9L406.07-2.9Q402.42 1 396.92 1L396.92 1Q391.67 1 388.32-2.63 384.97-6.25 384.97-13.3L384.97-13.3Q384.97-20.05 388.7-23.88 392.42-27.7 397.22-27.7L397.22-27.7Q401.02-27.7 403.92-25.8 406.82-23.9 406.82-20.3ZM431.37-14.1L431.37-14.1 415.67-14.1Q415.22-1.35 423.32-1.35L423.32-1.35Q426.77-1.35 430.37-4.4L430.37-4.4Q431.12-3.95 431.52-2.85L431.52-2.85Q428.07 1 422.77 1L422.77 1Q410.57 1 410.57-13.35L410.57-13.35Q410.57-20.15 414.17-23.93 417.77-27.7 422.57-27.7L422.57-27.7Q427.82-27.7 430.12-24.05 432.42-20.4 432.42-14.55L432.42-14.55Q431.92-14.15 431.37-14.1ZM422.47-25.7L422.47-25.7Q419.87-25.7 418.04-23 416.22-20.3 415.82-16.1L415.82-16.1 422.02-16.1Q425.72-16.1 427.32-16.55L427.32-16.55Q427.32-20.65 426.07-23.18 424.82-25.7 422.47-25.7Z" opacity="1" transform="matrix(1,0,0,1,0,0)" fill="#ffffff" class="wordmark-text-0" data-fill-palette-color="primary" id="text-0"></path></svg></g></svg></g></svg></g></svg></g><g transform="matrix(1,0,0,1,95.25763282175359,0)"><svg viewBox="0 0 55.138251156492785 33.75686265247503" height="33.75686265247503" width="55.138251156492785"><g><svg xmlns="http://www.w3.org/2000/svg" xmlns:xlink="http://www.w3.org/1999/xlink" version="1.1" x="0" y="0" viewBox="5 22.4 90 55.1" enable-background="new 0 0 100 100" xml:space="preserve" height="33.75686265247503" width="55.138251156492785" class="icon-icon-0" data-fill-palette-color="accent" id="icon-0"><path d="M94.3 31.8L69.9 24.5C69.7 24.4 69.5 24.4 69.3 24.5L55.3 29.4 45.8 22.6C45.6 22.4 45.3 22.4 45.1 22.4L11.6 28C11.2 28.1 10.9 28.4 10.8 28.8S10.9 29.6 11.2 29.8L19.6 35.8 5.6 41.5C5.2 41.7 5 42 5 42.5S5.3 43.3 5.7 43.4L20.6 47.8V69.2C20.6 69.6 20.9 70 21.3 70.2L45.7 77.5H46.2L79.7 71.9C80.2 71.8 80.5 71.4 80.5 70.9V48.5L89.6 47C90 46.9 90.3 46.7 90.4 46.3S90.4 45.5 90.1 45.3L81.5 38.2 94.3 33.7C94.7 33.6 95 33.2 95 32.7S94.7 31.9 94.3 31.8M46.1 42.4L26 36.4 54.1 31.7V41zM56.1 31.9L75.1 37.6 56.1 40.8zM44.9 24.6L52.5 30 21.8 35.2 14.2 29.8zM21.7 37.3L43 43.6 30.4 48.6 9 42.3zM22.6 48.4L30.1 50.6H30.4C30.5 50.6 30.7 50.6 30.8 50.5L45 44.9V75.1L22.6 68.4zM78.5 70L47 75.3V45.6L55.3 52.4C55.5 52.5 55.7 52.6 55.9 52.6H56.1L78.5 48.8zM56.3 50.6L48.4 44.1 79.3 38.9 87.2 45.4zM79.5 36.8L58.3 30.5 69.6 26.5 90.8 32.8z" fill="#ffffff" data-fill-palette-color="accent"></path></svg></g></svg></g><g></g></svg></g></svg></g><path d="M0 79.289L0 1 244.431 1 244.431 79.289 242.24 79.289 242.24 3.192 2.192 3.192 2.192 79.289 0 79.289M0 167.911L0 246.2 244.431 246.2 244.431 167.911 242.24 167.911 242.24 244.008 2.192 244.008 2.192 167.911 0 167.911" fill="#ffffff" stroke="transparent" data-fill-palette-color="tertiary"></path></svg></g><defs></defs></svg><rect width="244.43135999999998" height="247.2" fill="none" stroke="none" visibility="hidden"></rect></g></svg></g></svg>